<?xml version="1.0" encoding="utf-8"?>
<!-- Generator: Adobe Illustrator 28.0.0, SVG Export Plug-In . SVG Version: 6.00 Build 0)  -->
<!DOCTYPE svg PUBLIC "-//W3C//DTD SVG 1.1//EN" "http://www.w3.org/Graphics/SVG/1.1/DTD/svg11.dtd" [
	<!ENTITY ns_extend "http://ns.adobe.com/Extensibility/1.0/">
	<!ENTITY ns_ai "http://ns.adobe.com/AdobeIllustrator/10.0/">
	<!ENTITY ns_graphs "http://ns.adobe.com/Graphs/1.0/">
	<!ENTITY ns_vars "http://ns.adobe.com/Variables/1.0/">
	<!ENTITY ns_imrep "http://ns.adobe.com/ImageReplacement/1.0/">
	<!ENTITY ns_sfw "http://ns.adobe.com/SaveForWeb/1.0/">
	<!ENTITY ns_custom "http://ns.adobe.com/GenericCustomNamespace/1.0/">
	<!ENTITY ns_adobe_xpath "http://ns.adobe.com/XPath/1.0/">
]>
<svg version="1.1" id="Layer_1" xmlns:x="&ns_extend;" xmlns:i="&ns_ai;" xmlns:graph="&ns_graphs;"
	 xmlns="http://www.w3.org/2000/svg" xmlns:xlink="http://www.w3.org/1999/xlink" x="0px" y="0px" viewBox="0 0 160 40"
	 style="enable-background:new 0 0 160 40;" xml:space="preserve">
<style type="text/css">
	.st0{fill:#60E2E8;}
	.st1{fill:#FFFFFF;}
</style>
<metadata>
	<sfw  xmlns="&ns_sfw;">
		<slices></slices>
		<sliceSourceBounds  bottomLeftOrigin="true" height="81.8" width="160" x="0" y="-86.9"></sliceSourceBounds>
		<optimizationSettings>
			<targetSettings  fileFormat="PNG24Format" targetSettingsID="0">
				<PNG24Format  filtered="false" interlaced="false" matteColor="#FFFFFF" noMatteColor="false" transparency="false">
					</PNG24Format>
			</targetSettings>
		</optimizationSettings>
	</sfw>
</metadata>
<path d="M22.7,28.1c-1.6,0-3.1-0.4-4.3-1.1c-1.3-0.7-2.3-1.8-3-3.1c-0.7-1.3-1.1-2.8-1.1-4.5s0.4-3.2,1.1-4.5c0.7-1.3,1.7-2.3,3-3.1
	c1.3-0.7,2.7-1.1,4.3-1.1c1.2,0,2.2,0.2,3.2,0.6c1,0.4,1.9,1,2.6,1.7c0.7,0.7,1.3,1.6,1.7,2.5l-3,1.1c-0.3-0.6-0.6-1.1-1.1-1.5
	c-0.4-0.4-1-0.8-1.5-1c-0.6-0.2-1.2-0.4-1.9-0.4c-1,0-1.8,0.2-2.6,0.7c-0.8,0.5-1.4,1.2-1.8,2c-0.4,0.8-0.6,1.8-0.6,3
	c0,1.1,0.2,2.1,0.6,3c0.4,0.9,1,1.5,1.8,2c0.8,0.5,1.6,0.7,2.6,0.7c0.7,0,1.3-0.1,1.9-0.4s1.1-0.6,1.5-1.1c0.4-0.5,0.8-1,1.1-1.6
	l3,1.1c-0.4,1-1,1.8-1.7,2.6s-1.6,1.3-2.6,1.8C24.9,27.9,23.8,28.1,22.7,28.1z"/>
<path d="M37.8,28.1c-1.2,0-2.3-0.3-3.3-0.8c-0.9-0.5-1.7-1.3-2.2-2.2c-0.5-0.9-0.8-2-0.8-3.3c0-1.2,0.3-2.3,0.8-3.3
	c0.5-0.9,1.3-1.7,2.2-2.2c0.9-0.5,2-0.8,3.2-0.8c1.2,0,2.3,0.3,3.3,0.8c0.9,0.5,1.7,1.3,2.2,2.2c0.5,0.9,0.8,2,0.8,3.3
	c0,1.2-0.3,2.3-0.8,3.3c-0.5,0.9-1.3,1.7-2.2,2.2C40.1,27.8,39,28.1,37.8,28.1z M37.8,25.2c0.6,0,1.1-0.1,1.5-0.4
	c0.4-0.3,0.8-0.7,1-1.2c0.3-0.5,0.4-1.1,0.4-1.7c0-0.7-0.1-1.2-0.4-1.7c-0.3-0.5-0.6-0.9-1.1-1.2c-0.5-0.3-1-0.4-1.5-0.4
	c-0.6,0-1.1,0.1-1.6,0.4c-0.5,0.3-0.8,0.7-1.1,1.2c-0.3,0.5-0.4,1.1-0.4,1.7c0,0.7,0.1,1.2,0.4,1.7c0.3,0.5,0.6,0.9,1.1,1.2
	C36.7,25,37.2,25.2,37.8,25.2z"/>
<path d="M50.9,28.1c-1.1,0-2.1-0.3-2.9-0.8s-1.4-1.2-1.9-2.2c-0.4-0.9-0.7-2.1-0.7-3.3c0-1.3,0.2-2.4,0.7-3.3
	c0.4-0.9,1.1-1.7,1.9-2.2c0.8-0.5,1.8-0.8,2.9-0.8c1,0,1.9,0.3,2.6,0.8c0.7,0.5,1.2,1.2,1.6,2.2s0.6,2.1,0.6,3.3
	c0,1.3-0.2,2.4-0.6,3.3s-0.9,1.7-1.6,2.2C52.8,27.8,51.9,28.1,50.9,28.1z M51.7,25.2c0.5,0,1-0.1,1.5-0.4c0.4-0.3,0.8-0.7,1-1.2
	c0.2-0.5,0.4-1.1,0.4-1.8c0-0.7-0.1-1.2-0.4-1.8c-0.2-0.5-0.6-0.9-1-1.2c-0.4-0.3-0.9-0.4-1.5-0.4c-0.6,0-1.1,0.1-1.5,0.4
	c-0.4,0.3-0.8,0.7-1,1.2c-0.3,0.5-0.4,1.1-0.4,1.8c0,0.7,0.1,1.2,0.4,1.8c0.3,0.5,0.6,0.9,1,1.2C50.6,25,51.2,25.2,51.7,25.2z
	 M54.7,27.8l-0.2-2.2V11h3.2v16.8H54.7z"/>
<path d="M65.8,28.1c-1.2,0-2.2-0.3-3.1-0.8c-0.9-0.5-1.6-1.3-2.1-2.2c-0.5-0.9-0.8-2-0.8-3.3c0-1.2,0.3-2.3,0.8-3.3
	c0.5-0.9,1.3-1.7,2.2-2.2s2-0.8,3.2-0.8c1.1,0,2,0.3,2.9,0.8c0.9,0.6,1.6,1.4,2.1,2.4c0.5,1.1,0.8,2.4,0.8,3.9h-9.1l0.3-0.3
	c0,0.6,0.1,1.1,0.4,1.5c0.3,0.4,0.7,0.8,1.2,1c0.5,0.2,1,0.3,1.5,0.3c0.7,0,1.2-0.1,1.6-0.4s0.7-0.6,1-1.1l2.8,1.1
	c-0.3,0.7-0.8,1.3-1.3,1.7c-0.5,0.5-1.2,0.9-1.9,1.1C67.6,28,66.8,28.1,65.8,28.1z M63.2,20.6l-0.3-0.3h5.8l-0.3,0.3
	c0-0.6-0.1-1-0.4-1.4c-0.3-0.3-0.6-0.6-1-0.8c-0.4-0.2-0.8-0.2-1.1-0.2s-0.8,0.1-1.2,0.2c-0.4,0.2-0.8,0.4-1.1,0.8
	C63.4,19.5,63.2,20,63.2,20.6z"/>
<path class="st0" d="M74.4,21.3V20h10.8v1.4H74.4z M79.1,26V15.2h1.4V26H79.1z"/>
<path d="M96.5,28.1c-1.6,0-3.1-0.4-4.3-1.1c-1.3-0.7-2.3-1.8-3-3.1c-0.7-1.3-1.1-2.8-1.1-4.5s0.4-3.2,1.1-4.5s1.7-2.3,3-3.1
	c1.3-0.7,2.7-1.1,4.3-1.1c1.2,0,2.2,0.2,3.2,0.6c1,0.4,1.9,1,2.6,1.7s1.3,1.6,1.7,2.5l-3,1.1c-0.3-0.6-0.6-1.1-1.1-1.5
	c-0.4-0.4-1-0.8-1.5-1s-1.2-0.4-1.9-0.4c-1,0-1.8,0.2-2.6,0.7c-0.8,0.5-1.4,1.2-1.8,2c-0.4,0.8-0.6,1.8-0.6,3c0,1.1,0.2,2.1,0.6,3
	c0.4,0.9,1,1.5,1.8,2c0.8,0.5,1.6,0.7,2.6,0.7c0.7,0,1.3-0.1,1.9-0.4s1.1-0.6,1.5-1.1c0.4-0.5,0.8-1,1.1-1.6l3,1.1
	c-0.4,1-1,1.8-1.7,2.6s-1.6,1.3-2.6,1.8C98.7,27.9,97.6,28.1,96.5,28.1z"/>
<path d="M111.6,28.1c-1.2,0-2.3-0.3-3.3-0.8c-0.9-0.5-1.7-1.3-2.2-2.2c-0.5-0.9-0.8-2-0.8-3.3c0-1.2,0.3-2.3,0.8-3.3
	c0.5-0.9,1.3-1.7,2.2-2.2s2-0.8,3.2-0.8c1.2,0,2.3,0.3,3.3,0.8s1.7,1.3,2.2,2.2c0.5,0.9,0.8,2,0.8,3.3c0,1.2-0.3,2.3-0.8,3.3
	c-0.5,0.9-1.3,1.7-2.2,2.2C113.9,27.8,112.8,28.1,111.6,28.1z M111.6,25.2c0.6,0,1.1-0.1,1.5-0.4c0.4-0.3,0.8-0.7,1-1.2
	c0.3-0.5,0.4-1.1,0.4-1.7c0-0.7-0.1-1.2-0.4-1.7c-0.3-0.5-0.6-0.9-1.1-1.2c-0.5-0.3-1-0.4-1.5-0.4c-0.6,0-1.1,0.1-1.6,0.4
	c-0.5,0.3-0.8,0.7-1.1,1.2c-0.3,0.5-0.4,1.1-0.4,1.7c0,0.7,0.1,1.2,0.4,1.7c0.3,0.5,0.6,0.9,1.1,1.2C110.5,25,111,25.2,111.6,25.2z"
	/>
<path d="M120.1,32.6V15.8h3l0.2,2.2v14.6H120.1z M126.8,28.1c-1,0-1.9-0.3-2.6-0.8c-0.7-0.5-1.2-1.2-1.6-2.2s-0.6-2.1-0.6-3.3
	c0-1.3,0.2-2.4,0.6-3.3s0.9-1.7,1.6-2.2c0.7-0.5,1.5-0.8,2.6-0.8c1.1,0,2.1,0.3,2.9,0.8c0.8,0.5,1.4,1.2,1.9,2.2
	c0.4,0.9,0.7,2.1,0.7,3.3c0,1.3-0.2,2.4-0.7,3.3c-0.4,0.9-1.1,1.7-1.9,2.2C128.9,27.8,128,28.1,126.8,28.1z M126,25.2
	c0.6,0,1.1-0.1,1.5-0.4c0.4-0.3,0.8-0.7,1-1.2c0.3-0.5,0.4-1.1,0.4-1.8c0-0.7-0.1-1.2-0.4-1.7c-0.2-0.5-0.6-0.9-1-1.2
	c-0.4-0.3-0.9-0.4-1.5-0.4c-0.5,0-1,0.1-1.5,0.4c-0.4,0.3-0.8,0.7-1,1.2c-0.2,0.5-0.4,1.1-0.4,1.7c0,0.7,0.1,1.2,0.4,1.8
	c0.2,0.5,0.6,0.9,1,1.2S125.5,25.2,126,25.2z"/>
<path d="M138.3,27.8l-5.5-12h3.5l4,9.7l1,2.3H138.3z M136.5,32.9c-0.4,0-0.9-0.1-1.4-0.3s-1-0.4-1.4-0.6l1.2-2.6
	c0.3,0.1,0.5,0.3,0.8,0.3c0.2,0.1,0.4,0.1,0.6,0.1c0.3,0,0.6-0.1,0.9-0.3s0.5-0.5,0.6-0.8l1.4-3.3l3.8-9.7h3.5l-5.4,13
	c-0.3,0.8-0.7,1.5-1.1,2.1c-0.4,0.6-0.8,1.1-1.4,1.4S137.4,32.9,136.5,32.9z"/>
<g>
	<g>
		<path class="st0" d="M5.4,20.4v-1.1c0.8,0,1.4-0.1,1.8-0.3c0.4-0.2,0.7-0.6,0.9-1.2c0.2-0.6,0.3-1.4,0.3-2.5
			c0-1.7,0.1-3.1,0.2-4.3C8.8,9.9,9,9,9.4,8.3c0.4-0.6,0.9-1.1,1.5-1.4c0.6-0.3,1.4-0.4,2.4-0.4v1.7c-0.8,0-1.4,0.2-1.8,0.6
			S10.8,10,10.6,11c-0.2,1-0.3,2.4-0.3,4.2c0,1.4-0.1,2.5-0.4,3.2c-0.3,0.8-0.8,1.3-1.5,1.6C7.8,20.3,6.8,20.4,5.4,20.4z M13.3,33.6
			c-1,0-1.8-0.1-2.4-0.4c-0.6-0.3-1.1-0.7-1.5-1.4c-0.4-0.6-0.6-1.5-0.8-2.6s-0.2-2.5-0.2-4.3c0-1.1-0.1-1.9-0.3-2.5s-0.5-1-0.9-1.2
			c-0.4-0.2-1-0.3-1.8-0.3v-1.1c1.3,0,2.3,0.1,3,0.4c0.7,0.3,1.2,0.8,1.5,1.6s0.4,1.8,0.4,3.2c0,1.8,0.1,3.2,0.3,4.2
			c0.2,1,0.5,1.7,0.9,2.1c0.4,0.4,1,0.6,1.8,0.6V33.6z"/>
	</g>
</g>
<g>
	<g>
		<path class="st0" d="M155.9,20.4c-1.3,0-2.3-0.1-3-0.4c-0.7-0.3-1.2-0.8-1.5-1.6c-0.3-0.8-0.4-1.8-0.4-3.2c0-1.8-0.1-3.2-0.2-4.2
			s-0.5-1.7-0.9-2.1s-1-0.6-1.8-0.6V6.6c1,0,1.8,0.1,2.4,0.4c0.6,0.3,1.1,0.7,1.5,1.4c0.4,0.6,0.6,1.5,0.8,2.6
			c0.1,1.1,0.2,2.5,0.2,4.3c0,1.1,0.1,1.9,0.3,2.5c0.2,0.6,0.5,1,0.9,1.2c0.4,0.2,1,0.3,1.8,0.3V20.4z M148.1,33.6v-1.7
			c0.8,0,1.4-0.2,1.8-0.6c0.4-0.4,0.7-1.1,0.9-2.1s0.2-2.4,0.2-4.2c0-1.4,0.1-2.5,0.4-3.2s0.8-1.3,1.5-1.6c0.7-0.3,1.7-0.4,3-0.4
			v1.1c-0.8,0-1.4,0.1-1.8,0.3c-0.4,0.2-0.7,0.6-0.9,1.2c-0.2,0.6-0.3,1.4-0.3,2.5c0,1.7-0.1,3.1-0.2,4.3c-0.1,1.1-0.4,2-0.8,2.6
			c-0.4,0.6-0.9,1.1-1.5,1.4C149.9,33.5,149,33.6,148.1,33.6z"/>
	</g>
</g>
</svg>
