<svg width="24" height="24" viewBox="0 0 24 24" fill="none" xmlns="http://www.w3.org/2000/svg">
<path fill-rule="evenodd" clip-rule="evenodd" d="M18.414 6.414L15.586 3.586C15.211 3.211 14.702 3 14.172 3H7C5.895 3 5 3.895 5 5V19C5 20.105 5.895 21 7 21H17C18.105 21 19 20.105 19 19V7.828C19 7.298 18.789 6.789 18.414 6.414V6.414Z" stroke="currentColor" stroke-width="1.5" stroke-linecap="round" stroke-linejoin="round"/>
<path d="M19 8H15C14.448 8 14 7.552 14 7V3" stroke="currentColor" stroke-width="1.5" stroke-linecap="round" stroke-linejoin="round"/>
<path d="M10.3398 16.55H13.6598" stroke="currentColor" stroke-width="1.5" stroke-linecap="round" stroke-linejoin="round"/>
<path fill-rule="evenodd" clip-rule="evenodd" d="M10.832 12.751V11.583C10.832 11.261 11.093 11 11.415 11H12.583C12.905 11 13.166 11.261 13.166 11.583V12.751C13.166 13.073 12.905 13.334 12.583 13.334H11.415C11.093 13.333 10.832 13.072 10.832 12.751Z" stroke="currentColor" stroke-width="1.5" stroke-linecap="round" stroke-linejoin="round"/>
<path fill-rule="evenodd" clip-rule="evenodd" d="M8 17.417V16.249C8 15.927 8.261 15.666 8.583 15.666H9.751C10.073 15.666 10.334 15.927 10.334 16.249V17.417C10.334 17.739 10.073 18 9.751 18H8.583C8.261 18 8 17.739 8 17.417Z" stroke="currentColor" stroke-width="1.5" stroke-linecap="round" stroke-linejoin="round"/>
<path fill-rule="evenodd" clip-rule="evenodd" d="M13.668 17.417V16.249C13.668 15.927 13.929 15.666 14.251 15.666H15.419C15.741 15.666 16.002 15.927 16.002 16.249V17.417C16.001 17.739 15.74 18 15.418 18H14.25C13.929 18 13.668 17.739 13.668 17.417H13.668Z" stroke="currentColor" stroke-width="1.5" stroke-linecap="round" stroke-linejoin="round"/>
<path d="M14.2405 15.67L12.7305 13.31" stroke="currentColor" stroke-width="1.5" stroke-linecap="round" stroke-linejoin="round"/>
<path d="M9.75977 15.67L11.2698 13.31" stroke="currentColor" stroke-width="1.5" stroke-linecap="round" stroke-linejoin="round"/>
</svg>
