<svg version="1.1" id="Layer_1" xmlns="http://www.w3.org/2000/svg" x="0" y="0" viewBox="0 0 160 40" fill="currentColor" style="enable-background:new 0 0 160 40" xml:space="preserve">
    <style>
        .st0{fill:#60e2e8}
    </style>
    <path class="bracesLeft" d="M22.7 28.1c-1.6 0-3.1-.4-4.3-1.1-1.3-.7-2.3-1.8-3-3.1-.7-1.3-1.1-2.8-1.1-4.5s.4-3.2 1.1-4.5c.7-1.3 1.7-2.3 3-3.1 1.3-.7 2.7-1.1 4.3-1.1 1.2 0 2.2.2 3.2.6 1 .4 1.9 1 2.6 1.7.7.7 1.3 1.6 1.7 2.5l-3 1.1c-.3-.6-.6-1.1-1.1-1.5-.4-.4-1-.8-1.5-1-.6-.2-1.2-.4-1.9-.4-1 0-1.8.2-2.6.7-.8.5-1.4 1.2-1.8 2-.4.8-.6 1.8-.6 3 0 1.1.2 2.1.6 3 .4.9 1 1.5 1.8 2s1.6.7 2.6.7c.7 0 1.3-.1 1.9-.4s1.1-.6 1.5-1.1c.4-.5.8-1 1.1-1.6l3 1.1c-.4 1-1 1.8-1.7 2.6s-1.6 1.3-2.6 1.8c-1 .4-2.1.6-3.2.6zM37.8 28.1c-1.2 0-2.3-.3-3.3-.8-.9-.5-1.7-1.3-2.2-2.2-.5-.9-.8-2-.8-3.3 0-1.2.3-2.3.8-3.3.5-.9 1.3-1.7 2.2-2.2.9-.5 2-.8 3.2-.8 1.2 0 2.3.3 3.3.8.9.5 1.7 1.3 2.2 2.2.5.9.8 2 .8 3.3 0 1.2-.3 2.3-.8 3.3-.5.9-1.3 1.7-2.2 2.2-.9.5-2 .8-3.2.8zm0-2.9c.6 0 1.1-.1 1.5-.4.4-.3.8-.7 1-1.2.3-.5.4-1.1.4-1.7 0-.7-.1-1.2-.4-1.7-.3-.5-.6-.9-1.1-1.2-.5-.3-1-.4-1.5-.4-.6 0-1.1.1-1.6.4-.5.3-.8.7-1.1 1.2-.3.5-.4 1.1-.4 1.7 0 .7.1 1.2.4 1.7.3.5.6.9 1.1 1.2.6.2 1.1.4 1.7.4zM50.9 28.1c-1.1 0-2.1-.3-2.9-.8s-1.4-1.2-1.9-2.2c-.4-.9-.7-2.1-.7-3.3 0-1.3.2-2.4.7-3.3.4-.9 1.1-1.7 1.9-2.2.8-.5 1.8-.8 2.9-.8 1 0 1.9.3 2.6.8.7.5 1.2 1.2 1.6 2.2s.6 2.1.6 3.3c0 1.3-.2 2.4-.6 3.3s-.9 1.7-1.6 2.2c-.7.5-1.6.8-2.6.8zm.8-2.9c.5 0 1-.1 1.5-.4.4-.3.8-.7 1-1.2.2-.5.4-1.1.4-1.8s-.1-1.2-.4-1.8c-.2-.5-.6-.9-1-1.2-.4-.3-.9-.4-1.5-.4s-1.1.1-1.5.4c-.4.3-.8.7-1 1.2-.3.5-.4 1.1-.4 1.8s.1 1.2.4 1.8c.3.5.6.9 1 1.2.4.2 1 .4 1.5.4zm3 2.6-.2-2.2V11h3.2v16.8h-3zM65.8 28.1c-1.2 0-2.2-.3-3.1-.8-.9-.5-1.6-1.3-2.1-2.2-.5-.9-.8-2-.8-3.3 0-1.2.3-2.3.8-3.3.5-.9 1.3-1.7 2.2-2.2s2-.8 3.2-.8c1.1 0 2 .3 2.9.8.9.6 1.6 1.4 2.1 2.4.5 1.1.8 2.4.8 3.9h-9.1l.3-.3c0 .6.1 1.1.4 1.5.3.4.7.8 1.2 1 .5.2 1 .3 1.5.3.7 0 1.2-.1 1.6-.4s.7-.6 1-1.1l2.8 1.1c-.3.7-.8 1.3-1.3 1.7-.5.5-1.2.9-1.9 1.1-.7.5-1.5.6-2.5.6zm-2.6-7.5-.3-.3h5.8l-.3.3c0-.6-.1-1-.4-1.4-.3-.3-.6-.6-1-.8-.4-.2-.8-.2-1.1-.2s-.8.1-1.2.2c-.4.2-.8.4-1.1.8-.2.3-.4.8-.4 1.4z"/>
    <path class="st0" d="M74.4 21.3V20h10.8v1.4H74.4zm4.7 4.7V15.2h1.4V26h-1.4z"/>
    <path d="M96.5 28.1c-1.6 0-3.1-.4-4.3-1.1-1.3-.7-2.3-1.8-3-3.1-.7-1.3-1.1-2.8-1.1-4.5s.4-3.2 1.1-4.5 1.7-2.3 3-3.1c1.3-.7 2.7-1.1 4.3-1.1 1.2 0 2.2.2 3.2.6 1 .4 1.9 1 2.6 1.7s1.3 1.6 1.7 2.5l-3 1.1c-.3-.6-.6-1.1-1.1-1.5-.4-.4-1-.8-1.5-1s-1.2-.4-1.9-.4c-1 0-1.8.2-2.6.7-.8.5-1.4 1.2-1.8 2-.4.8-.6 1.8-.6 3 0 1.1.2 2.1.6 3 .4.9 1 1.5 1.8 2s1.6.7 2.6.7c.7 0 1.3-.1 1.9-.4s1.1-.6 1.5-1.1c.4-.5.8-1 1.1-1.6l3 1.1c-.4 1-1 1.8-1.7 2.6s-1.6 1.3-2.6 1.8c-1 .4-2.1.6-3.2.6zM111.6 28.1c-1.2 0-2.3-.3-3.3-.8-.9-.5-1.7-1.3-2.2-2.2-.5-.9-.8-2-.8-3.3 0-1.2.3-2.3.8-3.3.5-.9 1.3-1.7 2.2-2.2s2-.8 3.2-.8c1.2 0 2.3.3 3.3.8s1.7 1.3 2.2 2.2c.5.9.8 2 .8 3.3 0 1.2-.3 2.3-.8 3.3-.5.9-1.3 1.7-2.2 2.2-.9.5-2 .8-3.2.8zm0-2.9c.6 0 1.1-.1 1.5-.4.4-.3.8-.7 1-1.2.3-.5.4-1.1.4-1.7 0-.7-.1-1.2-.4-1.7-.3-.5-.6-.9-1.1-1.2-.5-.3-1-.4-1.5-.4-.6 0-1.1.1-1.6.4-.5.3-.8.7-1.1 1.2-.3.5-.4 1.1-.4 1.7 0 .7.1 1.2.4 1.7.3.5.6.9 1.1 1.2.6.2 1.1.4 1.7.4zM120.1 32.6V15.8h3l.2 2.2v14.6h-3.2zm6.7-4.5c-1 0-1.9-.3-2.6-.8-.7-.5-1.2-1.2-1.6-2.2s-.6-2.1-.6-3.3c0-1.3.2-2.4.6-3.3s.9-1.7 1.6-2.2c.7-.5 1.5-.8 2.6-.8s2.1.3 2.9.8c.8.5 1.4 1.2 1.9 2.2.4.9.7 2.1.7 3.3 0 1.3-.2 2.4-.7 3.3-.4.9-1.1 1.7-1.9 2.2-.8.5-1.7.8-2.9.8zm-.8-2.9c.6 0 1.1-.1 1.5-.4.4-.3.8-.7 1-1.2.3-.5.4-1.1.4-1.8s-.1-1.2-.4-1.7c-.2-.5-.6-.9-1-1.2-.4-.3-.9-.4-1.5-.4-.5 0-1 .1-1.5.4-.4.3-.8.7-1 1.2-.2.5-.4 1.1-.4 1.7 0 .7.1 1.2.4 1.8.2.5.6.9 1 1.2s1 .4 1.5.4zM138.3 27.8l-5.5-12h3.5l4 9.7 1 2.3h-3zm-1.8 5.1c-.4 0-.9-.1-1.4-.3s-1-.4-1.4-.6l1.2-2.6c.3.1.5.3.8.3.2.1.4.1.6.1.3 0 .6-.1.9-.3s.5-.5.6-.8l1.4-3.3 3.8-9.7h3.5l-5.4 13c-.3.8-.7 1.5-1.1 2.1-.4.6-.8 1.1-1.4 1.4s-1.2.7-2.1.7z"/>
    <path class="st0" d="M5.4 20.4v-1.1c.8 0 1.4-.1 1.8-.3.4-.2.7-.6.9-1.2.2-.6.3-1.4.3-2.5 0-1.7.1-3.1.2-4.3.2-1.1.4-2 .8-2.7.4-.6.9-1.1 1.5-1.4.6-.3 1.4-.4 2.4-.4v1.7c-.8 0-1.4.2-1.8.6s-.7 1.2-.9 2.2c-.2 1-.3 2.4-.3 4.2 0 1.4-.1 2.5-.4 3.2-.3.8-.8 1.3-1.5 1.6-.6.3-1.6.4-3 .4zm7.9 13.2c-1 0-1.8-.1-2.4-.4-.6-.3-1.1-.7-1.5-1.4-.4-.6-.6-1.5-.8-2.6s-.2-2.5-.2-4.3c0-1.1-.1-1.9-.3-2.5s-.5-1-.9-1.2c-.4-.2-1-.3-1.8-.3v-1.1c1.3 0 2.3.1 3 .4.7.3 1.2.8 1.5 1.6s.4 1.8.4 3.2c0 1.8.1 3.2.3 4.2.2 1 .5 1.7.9 2.1.4.4 1 .6 1.8.6v1.7zM155.9 20.4c-1.3 0-2.3-.1-3-.4-.7-.3-1.2-.8-1.5-1.6-.3-.8-.4-1.8-.4-3.2 0-1.8-.1-3.2-.2-4.2s-.5-1.7-.9-2.1-1-.6-1.8-.6V6.6c1 0 1.8.1 2.4.4.6.3 1.1.7 1.5 1.4.4.6.6 1.5.8 2.6.1 1.1.2 2.5.2 4.3 0 1.1.1 1.9.3 2.5.2.6.5 1 .9 1.2.4.2 1 .3 1.8.3v1.1zm-7.8 13.2v-1.7c.8 0 1.4-.2 1.8-.6.4-.4.7-1.1.9-2.1s.2-2.4.2-4.2c0-1.4.1-2.5.4-3.2s.8-1.3 1.5-1.6c.7-.3 1.7-.4 3-.4v1.1c-.8 0-1.4.1-1.8.3-.4.2-.7.6-.9 1.2-.2.6-.3 1.4-.3 2.5 0 1.7-.1 3.1-.2 4.3-.1 1.1-.4 2-.8 2.6-.4.6-.9 1.1-1.5 1.4-.5.3-1.4.4-2.3.4z"/>
</svg>
