<svg viewBox="0 0 112 112" fill="currentcolor" xmlns="http://www.w3.org/2000/svg">
  <path d="m56 6.442 5.267 23.311 13.867-19.538L71 33.749l20.355-12.792L78.45 41.132l23.744-4.097L82.481 50.78 106 56l-23.519 5.222 19.713 13.744-23.744-4.097 12.905 20.174L71 78.251l4.134 23.534-13.867-19.538L56 105.557l-5.267-23.31-13.867 19.538L41 78.251 20.645 91.042 33.55 70.868 9.806 74.965 29.519 61.22 6 56l23.519-5.22L9.806 37.034l23.744 4.097-12.905-20.175L41 33.75l-4.134-23.534 13.867 19.538L56 6.443Z" fill="currentcolor"/>
</svg>
